<svg xmlns="http://www.w3.org/2000/svg" width="24" height="24" viewBox="0 0 24 24" fill="none" stroke="currentColor" stroke-width="2" stroke-linecap="round" stroke-linejoin="round" class="lucide lucide-settings"><path d="M12.22 2h-.44a2 2 0 0 0-2 2v.18a2 2 0 0 1-1 1.73l-.43.25a2 2 0 0 0-2 0l-.15-.08a2 2 0 0 0-2.73.73l-.78 1.28a2 2 0 0 0 .73 2.73l.04.02a2 2 0 0 1 .97 1.94v.44a2 2 0 0 1-.97 1.94l-.04.02a2 2 0 0 0-.73 2.73l.78 1.28a2 2 0 0 0 2.73.73l.15-.08a2 2 0 0 0 2 0l.43.25a2 2 0 0 1 1 1.73V20a2 2 0 0 0 2 2h.44a2 2 0 0 0 2-2v-.18a2 2 0 0 1 1-1.73l.43-.25a2 2 0 0 0 2 0l.15.08a2 2 0 0 0 2.73-.73l.78-1.28a2 2 0 0 0-.73-2.73l-.04-.02a2 2 0 0 1-.97-1.94v-.44a2 2 0 0 1 .97-1.94l.04-.02a2 2 0 0 0 .73-2.73l-.78-1.28a2 2 0 0 0-2.73-.73l-.15.08a2 2 0 0 0-2 0l-.43-.25a2 2 0 0 1-1-1.73V4a2 2 0 0 0-2-2z"/><circle cx="12" cy="12" r="3"/></svg>